<?xml version="1.0" encoding="utf-8" standalone="no"?>
<!DOCTYPE svg PUBLIC "-//W3C//DTD SVG 1.1//EN"
  "http://www.w3.org/Graphics/SVG/1.1/DTD/svg11.dtd">
<!-- Created with matplotlib (https://matplotlib.org/) -->
<svg height="504pt" version="1.1" viewBox="0 0 504 504" width="504pt" xmlns="http://www.w3.org/2000/svg" xmlns:xlink="http://www.w3.org/1999/xlink">
 <defs>
  <style type="text/css">
*{stroke-linecap:butt;stroke-linejoin:round;}
  </style>
 </defs>
 <g id="figure_1">
  <g id="patch_1">
   <path d="M 0 504 
L 504 504 
L 504 0 
L 0 0 
z
" style="fill:#ffffff;"/>
  </g>
  <g id="axes_1">
   <g id="patch_2">
    <path d="M 73.182428 342.442644 
L 500.99976 342.442644 
L 500.99976 61.445729 
L 73.182428 61.445729 
z
" style="fill:#ffffff;"/>
   </g>
   <g id="patch_3">
    <path clip-path="url(#p0ffa2a0dd6)" d="M 112.074912 143.28184 
L 138.003235 143.28184 
L 138.003235 147.780409 
L 131.521155 135.329406 
L 138.003235 122.878402 
L 138.003235 118.203157 
L 112.074912 118.203157 
L 112.074912 122.878402 
L 118.556993 135.329406 
L 112.074912 147.780409 
L 112.074912 143.28184 
z
" style="fill:#477ca8;stroke:#414141;stroke-linejoin:miter;stroke-width:1.5;"/>
   </g>
   <g id="patch_4">
    <path clip-path="url(#p0ffa2a0dd6)" d="M 144.485316 167.24753 
L 170.413639 167.24753 
L 170.413639 169.901043 
L 163.931559 164.856363 
L 170.413639 159.811684 
L 170.413639 157.086589 
L 144.485316 157.086589 
L 144.485316 159.811684 
L 150.967397 164.856363 
L 144.485316 169.901043 
L 144.485316 167.24753 
z
" style="fill:#cb3335;stroke:#414141;stroke-linejoin:miter;stroke-width:1.5;"/>
   </g>
   <g id="patch_5">
    <path clip-path="url(#p0ffa2a0dd6)" d="M 176.89572 180.993271 
L 202.824043 180.993271 
L 202.824043 182.207998 
L 196.341963 167.301516 
L 202.824043 152.395034 
L 202.824043 150.96879 
L 176.89572 150.96879 
L 176.89572 152.395034 
L 183.377801 167.301516 
L 176.89572 182.207998 
L 176.89572 180.993271 
z
" style="fill:#59a257;stroke:#414141;stroke-linejoin:miter;stroke-width:1.5;"/>
   </g>
   <g id="patch_6">
    <path clip-path="url(#p0ffa2a0dd6)" d="M 209.306124 216.019966 
L 235.234447 216.019966 
L 235.234447 216.053452 
L 228.752367 214.998375 
L 235.234447 213.943299 
L 235.234447 213.894842 
L 209.306124 213.894842 
L 209.306124 213.943299 
L 215.788205 214.998375 
L 209.306124 216.053452 
L 209.306124 216.019966 
z
" style="fill:#905998;stroke:#414141;stroke-linejoin:miter;stroke-width:1.5;"/>
   </g>
   <g id="patch_7">
    <path clip-path="url(#p0ffa2a0dd6)" d="M 241.716528 239.406092 
L 267.644851 239.406092 
L 267.644851 242.702506 
L 261.162771 235.314221 
L 267.644851 227.925935 
L 267.644851 224.524685 
L 241.716528 224.524685 
L 241.716528 227.925935 
L 248.198609 235.314221 
L 241.716528 242.702506 
L 241.716528 239.406092 
z
" style="fill:#e890be;stroke:#414141;stroke-linejoin:miter;stroke-width:1.5;"/>
   </g>
   <g id="patch_8">
    <path clip-path="url(#p0ffa2a0dd6)" d="M 274.126932 279.440771 
L 300.055255 279.440771 
L 300.055255 282.132903 
L 293.573175 271.327314 
L 300.055255 260.521724 
L 300.055255 257.676265 
L 274.126932 257.676265 
L 274.126932 260.521724 
L 280.609013 271.327314 
L 274.126932 282.132903 
L 274.126932 279.440771 
z
" style="fill:#e890be;stroke:#414141;stroke-linejoin:miter;stroke-width:1.5;"/>
   </g>
   <g id="patch_9">
    <path clip-path="url(#p0ffa2a0dd6)" d="M 306.537336 276.475318 
L 332.465659 276.475318 
L 332.465659 278.766661 
L 325.983579 268.658784 
L 332.465659 258.550907 
L 332.465659 256.116138 
L 306.537336 256.116138 
L 306.537336 258.550907 
L 313.019417 268.658784 
L 306.537336 278.766661 
L 306.537336 276.475318 
z
" style="fill:#e890be;stroke:#414141;stroke-linejoin:miter;stroke-width:1.5;"/>
   </g>
   <g id="patch_10">
    <path clip-path="url(#p0ffa2a0dd6)" d="M 338.94774 279.924281 
L 364.876063 279.924281 
L 364.876063 279.791962 
L 358.393983 272.731021 
L 364.876063 265.670079 
L 364.876063 265.702206 
L 338.94774 265.702206 
L 338.94774 265.670079 
L 345.429821 272.731021 
L 338.94774 279.791962 
L 338.94774 279.924281 
z
" style="fill:#e890be;stroke:#414141;stroke-linejoin:miter;stroke-width:1.5;"/>
   </g>
   <g id="patch_11">
    <path clip-path="url(#p0ffa2a0dd6)" d="M 371.358144 274.641389 
L 397.286467 274.641389 
L 397.286467 271.920304 
L 390.804386 265.472135 
L 397.286467 259.023965 
L 397.286467 261.653554 
L 371.358144 261.653554 
L 371.358144 259.023965 
L 377.840225 265.472135 
L 371.358144 271.920304 
L 371.358144 274.641389 
z
" style="fill:#a05e39;stroke:#414141;stroke-linejoin:miter;stroke-width:1.5;"/>
   </g>
   <g id="patch_12">
    <path clip-path="url(#p0ffa2a0dd6)" d="M 403.768548 267.355458 
L 429.696871 267.355458 
L 429.696871 266.202954 
L 423.21479 259.717421 
L 429.696871 253.231888 
L 429.696871 254.292365 
L 403.768548 254.292365 
L 403.768548 253.231888 
L 410.250629 259.717421 
L 403.768548 266.202954 
L 403.768548 267.355458 
z
" style="fill:#a05e39;stroke:#414141;stroke-linejoin:miter;stroke-width:1.5;"/>
   </g>
   <g id="patch_13">
    <path clip-path="url(#p0ffa2a0dd6)" d="M 436.178952 321.668232 
L 462.107275 321.668232 
L 462.107275 322.792953 
L 455.625194 306.46435 
L 462.107275 290.135748 
L 462.107275 288.779331 
L 436.178952 288.779331 
L 436.178952 290.135748 
L 442.661033 306.46435 
L 436.178952 322.792953 
L 436.178952 321.668232 
z
" style="fill:#a05e39;stroke:#414141;stroke-linejoin:miter;stroke-width:1.5;"/>
   </g>
   <g id="PathCollection_1">
    <defs>
     <path d="M 0 1 
C 0.265203 1 0.51958 0.894634 0.707107 0.707107 
C 0.894634 0.51958 1 0.265203 1 0 
C 1 -0.265203 0.894634 -0.51958 0.707107 -0.707107 
C 0.51958 -0.894634 0.265203 -1 0 -1 
C -0.265203 -1 -0.51958 -0.894634 -0.707107 -0.707107 
C -0.894634 -0.51958 -1 -0.265203 -1 0 
C -1 0.265203 -0.894634 0.51958 -0.707107 0.707107 
C -0.51958 0.894634 -0.265203 1 0 1 
z
" id="m23266b989a" style="stroke:#000000;"/>
    </defs>
    <g clip-path="url(#p0ffa2a0dd6)">
     <use style="stroke:#000000;" x="116.936473" xlink:href="#m23266b989a" y="144.836725"/>
    </g>
   </g>
   <g id="PathCollection_2">
    <g clip-path="url(#p0ffa2a0dd6)">
     <use style="stroke:#000000;" x="119.457282" xlink:href="#m23266b989a" y="154.728204"/>
    </g>
   </g>
   <g id="PathCollection_3">
    <g clip-path="url(#p0ffa2a0dd6)">
     <use style="stroke:#000000;" x="121.978091" xlink:href="#m23266b989a" y="149.997617"/>
    </g>
   </g>
   <g id="PathCollection_4">
    <g clip-path="url(#p0ffa2a0dd6)">
     <use style="stroke:#000000;" x="124.4989" xlink:href="#m23266b989a" y="133.366342"/>
    </g>
   </g>
   <g id="PathCollection_5">
    <g clip-path="url(#p0ffa2a0dd6)">
     <use style="stroke:#000000;" x="127.01971" xlink:href="#m23266b989a" y="138.617182"/>
    </g>
   </g>
   <g id="PathCollection_6">
    <g clip-path="url(#p0ffa2a0dd6)">
     <use style="stroke:#000000;" x="129.540519" xlink:href="#m23266b989a" y="92.217042"/>
    </g>
   </g>
   <g id="PathCollection_7">
    <g clip-path="url(#p0ffa2a0dd6)">
     <use style="stroke:#000000;" x="132.061328" xlink:href="#m23266b989a" y="117.700927"/>
    </g>
   </g>
   <g id="PathCollection_8">
    <g clip-path="url(#p0ffa2a0dd6)">
     <use style="stroke:#000000;" x="134.582137" xlink:href="#m23266b989a" y="137.292469"/>
    </g>
   </g>
   <g id="PathCollection_9">
    <g clip-path="url(#p0ffa2a0dd6)">
     <use style="stroke:#000000;" x="137.102946" xlink:href="#m23266b989a" y="119.709848"/>
    </g>
   </g>
   <g id="PathCollection_10">
    <g clip-path="url(#p0ffa2a0dd6)">
     <use style="stroke:#000000;" x="139.623756" xlink:href="#m23266b989a" y="74.218316"/>
    </g>
   </g>
   <g id="PathCollection_11">
    <g clip-path="url(#p0ffa2a0dd6)">
     <use style="stroke:#000000;" x="149.346877" xlink:href="#m23266b989a" y="158.092246"/>
    </g>
   </g>
   <g id="PathCollection_12">
    <g clip-path="url(#p0ffa2a0dd6)">
     <use style="stroke:#000000;" x="151.867686" xlink:href="#m23266b989a" y="174.41999"/>
    </g>
   </g>
   <g id="PathCollection_13">
    <g clip-path="url(#p0ffa2a0dd6)">
     <use style="stroke:#000000;" x="154.388495" xlink:href="#m23266b989a" y="166.569128"/>
    </g>
   </g>
   <g id="PathCollection_14">
    <g clip-path="url(#p0ffa2a0dd6)">
     <use style="stroke:#000000;" x="156.909304" xlink:href="#m23266b989a" y="154.730195"/>
    </g>
   </g>
   <g id="PathCollection_15">
    <g clip-path="url(#p0ffa2a0dd6)">
     <use style="stroke:#000000;" x="159.430114" xlink:href="#m23266b989a" y="175.327328"/>
    </g>
   </g>
   <g id="PathCollection_16">
    <g clip-path="url(#p0ffa2a0dd6)">
     <use style="stroke:#000000;" x="161.950923" xlink:href="#m23266b989a" y="156.75137"/>
    </g>
   </g>
   <g id="PathCollection_17">
    <g clip-path="url(#p0ffa2a0dd6)">
     <use style="stroke:#000000;" x="164.471732" xlink:href="#m23266b989a" y="163.546358"/>
    </g>
   </g>
   <g id="PathCollection_18">
    <g clip-path="url(#p0ffa2a0dd6)">
     <use style="stroke:#000000;" x="166.992541" xlink:href="#m23266b989a" y="166.166368"/>
    </g>
   </g>
   <g id="PathCollection_19">
    <g clip-path="url(#p0ffa2a0dd6)">
     <use style="stroke:#000000;" x="169.51335" xlink:href="#m23266b989a" y="167.473665"/>
    </g>
   </g>
   <g id="PathCollection_20">
    <g clip-path="url(#p0ffa2a0dd6)">
     <use style="stroke:#000000;" x="172.03416" xlink:href="#m23266b989a" y="135.141271"/>
    </g>
   </g>
   <g id="PathCollection_21">
    <g clip-path="url(#p0ffa2a0dd6)">
     <use style="stroke:#000000;" x="181.757281" xlink:href="#m23266b989a" y="182.768146"/>
    </g>
   </g>
   <g id="PathCollection_22">
    <g clip-path="url(#p0ffa2a0dd6)">
     <use style="stroke:#000000;" x="184.27809" xlink:href="#m23266b989a" y="244.842881"/>
    </g>
   </g>
   <g id="PathCollection_23">
    <g clip-path="url(#p0ffa2a0dd6)">
     <use style="stroke:#000000;" x="186.798899" xlink:href="#m23266b989a" y="160.152151"/>
    </g>
   </g>
   <g id="PathCollection_24">
    <g clip-path="url(#p0ffa2a0dd6)">
     <use style="stroke:#000000;" x="189.319708" xlink:href="#m23266b989a" y="208.287151"/>
    </g>
   </g>
   <g id="PathCollection_25">
    <g clip-path="url(#p0ffa2a0dd6)">
     <use style="stroke:#000000;" x="191.840518" xlink:href="#m23266b989a" y="171.427719"/>
    </g>
   </g>
   <g id="PathCollection_26">
    <g clip-path="url(#p0ffa2a0dd6)">
     <use style="stroke:#000000;" x="194.361327" xlink:href="#m23266b989a" y="147.90767"/>
    </g>
   </g>
   <g id="PathCollection_27">
    <g clip-path="url(#p0ffa2a0dd6)">
     <use style="stroke:#000000;" x="196.882136" xlink:href="#m23266b989a" y="115.375506"/>
    </g>
   </g>
   <g id="PathCollection_28">
    <g clip-path="url(#p0ffa2a0dd6)">
     <use style="stroke:#000000;" x="199.402945" xlink:href="#m23266b989a" y="163.175313"/>
    </g>
   </g>
   <g id="PathCollection_29">
    <g clip-path="url(#p0ffa2a0dd6)">
     <use style="stroke:#000000;" x="201.923754" xlink:href="#m23266b989a" y="175.668643"/>
    </g>
   </g>
   <g id="PathCollection_30">
    <g clip-path="url(#p0ffa2a0dd6)">
     <use style="stroke:#000000;" x="204.444564" xlink:href="#m23266b989a" y="134.345385"/>
    </g>
   </g>
   <g id="PathCollection_31">
    <g clip-path="url(#p0ffa2a0dd6)">
     <use style="stroke:#000000;" x="214.167685" xlink:href="#m23266b989a" y="217.847096"/>
    </g>
   </g>
   <g id="PathCollection_32">
    <g clip-path="url(#p0ffa2a0dd6)">
     <use style="stroke:#000000;" x="216.688494" xlink:href="#m23266b989a" y="216.028687"/>
    </g>
   </g>
   <g id="PathCollection_33">
    <g clip-path="url(#p0ffa2a0dd6)">
     <use style="stroke:#000000;" x="219.209303" xlink:href="#m23266b989a" y="215.993803"/>
    </g>
   </g>
   <g id="PathCollection_34">
    <g clip-path="url(#p0ffa2a0dd6)">
     <use style="stroke:#000000;" x="221.730112" xlink:href="#m23266b989a" y="212.967094"/>
    </g>
   </g>
   <g id="PathCollection_35">
    <g clip-path="url(#p0ffa2a0dd6)">
     <use style="stroke:#000000;" x="224.250922" xlink:href="#m23266b989a" y="216.548388"/>
    </g>
   </g>
   <g id="PathCollection_36">
    <g clip-path="url(#p0ffa2a0dd6)">
     <use style="stroke:#000000;" x="226.771731" xlink:href="#m23266b989a" y="215.807931"/>
    </g>
   </g>
   <g id="PathCollection_37">
    <g clip-path="url(#p0ffa2a0dd6)">
     <use style="stroke:#000000;" x="229.29254" xlink:href="#m23266b989a" y="213.884564"/>
    </g>
   </g>
   <g id="PathCollection_38">
    <g clip-path="url(#p0ffa2a0dd6)">
     <use style="stroke:#000000;" x="231.813349" xlink:href="#m23266b989a" y="213.925677"/>
    </g>
   </g>
   <g id="PathCollection_39">
    <g clip-path="url(#p0ffa2a0dd6)">
     <use style="stroke:#000000;" x="234.334158" xlink:href="#m23266b989a" y="211.008193"/>
    </g>
   </g>
   <g id="PathCollection_40">
    <g clip-path="url(#p0ffa2a0dd6)">
     <use style="stroke:#000000;" x="236.854968" xlink:href="#m23266b989a" y="214.18882"/>
    </g>
   </g>
   <g id="PathCollection_41">
    <g clip-path="url(#p0ffa2a0dd6)">
     <use style="stroke:#000000;" x="246.578089" xlink:href="#m23266b989a" y="233.095449"/>
    </g>
   </g>
   <g id="PathCollection_42">
    <g clip-path="url(#p0ffa2a0dd6)">
     <use style="stroke:#000000;" x="249.098898" xlink:href="#m23266b989a" y="238.518055"/>
    </g>
   </g>
   <g id="PathCollection_43">
    <g clip-path="url(#p0ffa2a0dd6)">
     <use style="stroke:#000000;" x="251.619707" xlink:href="#m23266b989a" y="237.532992"/>
    </g>
   </g>
   <g id="PathCollection_44">
    <g clip-path="url(#p0ffa2a0dd6)">
     <use style="stroke:#000000;" x="254.140516" xlink:href="#m23266b989a" y="225.672664"/>
    </g>
   </g>
   <g id="PathCollection_45">
    <g clip-path="url(#p0ffa2a0dd6)">
     <use style="stroke:#000000;" x="256.661326" xlink:href="#m23266b989a" y="240.260972"/>
    </g>
   </g>
   <g id="PathCollection_46">
    <g clip-path="url(#p0ffa2a0dd6)">
     <use style="stroke:#000000;" x="259.182135" xlink:href="#m23266b989a" y="249.303029"/>
    </g>
   </g>
   <g id="PathCollection_47">
    <g clip-path="url(#p0ffa2a0dd6)">
     <use style="stroke:#000000;" x="261.702944" xlink:href="#m23266b989a" y="224.142026"/>
    </g>
   </g>
   <g id="PathCollection_48">
    <g clip-path="url(#p0ffa2a0dd6)">
     <use style="stroke:#000000;" x="264.223753" xlink:href="#m23266b989a" y="222.568283"/>
    </g>
   </g>
   <g id="PathCollection_49">
    <g clip-path="url(#p0ffa2a0dd6)">
     <use style="stroke:#000000;" x="266.744562" xlink:href="#m23266b989a" y="239.702105"/>
    </g>
   </g>
   <g id="PathCollection_50">
    <g clip-path="url(#p0ffa2a0dd6)">
     <use style="stroke:#000000;" x="269.265372" xlink:href="#m23266b989a" y="217.356862"/>
    </g>
   </g>
   <g id="PathCollection_51">
    <defs>
     <path d="M -2 0 
L 2 0 
M 0 2 
L 0 -2 
" id="m65f9596081" style="stroke:#000000;stroke-width:1.5;"/>
    </defs>
    <g clip-path="url(#p0ffa2a0dd6)">
     <use style="stroke:#000000;stroke-width:1.5;" x="278.988493" xlink:href="#m65f9596081" y="251.703931"/>
    </g>
   </g>
   <g id="PathCollection_52">
    <g clip-path="url(#p0ffa2a0dd6)">
     <use style="stroke:#000000;stroke-width:1.5;" x="281.509302" xlink:href="#m65f9596081" y="256.019473"/>
    </g>
   </g>
   <g id="PathCollection_53">
    <g clip-path="url(#p0ffa2a0dd6)">
     <use style="stroke:#000000;stroke-width:1.5;" x="284.030111" xlink:href="#m65f9596081" y="265.942083"/>
    </g>
   </g>
   <g id="PathCollection_54">
    <g clip-path="url(#p0ffa2a0dd6)">
     <use style="stroke:#000000;stroke-width:1.5;" x="286.55092" xlink:href="#m65f9596081" y="252.805528"/>
    </g>
   </g>
   <g id="PathCollection_55">
    <g clip-path="url(#p0ffa2a0dd6)">
     <use style="stroke:#000000;stroke-width:1.5;" x="289.07173" xlink:href="#m65f9596081" y="278.655007"/>
    </g>
   </g>
   <g id="PathCollection_56">
    <g clip-path="url(#p0ffa2a0dd6)">
     <use style="stroke:#000000;stroke-width:1.5;" x="291.592539" xlink:href="#m65f9596081" y="292.692349"/>
    </g>
   </g>
   <g id="PathCollection_57">
    <g clip-path="url(#p0ffa2a0dd6)">
     <use style="stroke:#000000;stroke-width:1.5;" x="294.113348" xlink:href="#m65f9596081" y="276.712544"/>
    </g>
   </g>
   <g id="PathCollection_58">
    <g clip-path="url(#p0ffa2a0dd6)">
     <use style="stroke:#000000;stroke-width:1.5;" x="296.634157" xlink:href="#m65f9596081" y="262.64664"/>
    </g>
   </g>
   <g id="PathCollection_59">
    <g clip-path="url(#p0ffa2a0dd6)">
     <use style="stroke:#000000;stroke-width:1.5;" x="299.154966" xlink:href="#m65f9596081" y="279.702693"/>
    </g>
   </g>
   <g id="PathCollection_60">
    <g clip-path="url(#p0ffa2a0dd6)">
     <use style="stroke:#000000;stroke-width:1.5;" x="301.675776" xlink:href="#m65f9596081" y="285.112711"/>
    </g>
   </g>
   <g id="PathCollection_61">
    <defs>
     <path d="M 0 2 
C 0.530406 2 1.03916 1.789267 1.414214 1.414214 
C 1.789267 1.03916 2 0.530406 2 0 
C 2 -0.530406 1.789267 -1.03916 1.414214 -1.414214 
C 1.03916 -1.789267 0.530406 -2 0 -2 
C -0.530406 -2 -1.03916 -1.789267 -1.414214 -1.414214 
C -1.789267 -1.03916 -2 -0.530406 -2 0 
C -2 0.530406 -1.789267 1.03916 -1.414214 1.414214 
C -1.03916 1.789267 -0.530406 2 0 2 
z
" id="mc96533d280" style="stroke:#000000;"/>
    </defs>
    <g clip-path="url(#p0ffa2a0dd6)">
     <use style="stroke:#000000;" x="311.398897" xlink:href="#mc96533d280" y="250.918106"/>
    </g>
   </g>
   <g id="PathCollection_62">
    <g clip-path="url(#p0ffa2a0dd6)">
     <use style="stroke:#000000;" x="313.919706" xlink:href="#mc96533d280" y="254.632091"/>
    </g>
   </g>
   <g id="PathCollection_63">
    <g clip-path="url(#p0ffa2a0dd6)">
     <use style="stroke:#000000;" x="316.440515" xlink:href="#mc96533d280" y="263.277655"/>
    </g>
   </g>
   <g id="PathCollection_64">
    <g clip-path="url(#p0ffa2a0dd6)">
     <use style="stroke:#000000;" x="318.961324" xlink:href="#mc96533d280" y="249.993791"/>
    </g>
   </g>
   <g id="PathCollection_65">
    <g clip-path="url(#p0ffa2a0dd6)">
     <use style="stroke:#000000;" x="321.482134" xlink:href="#mc96533d280" y="275.742812"/>
    </g>
   </g>
   <g id="PathCollection_66">
    <g clip-path="url(#p0ffa2a0dd6)">
     <use style="stroke:#000000;" x="324.002943" xlink:href="#mc96533d280" y="289.450578"/>
    </g>
   </g>
   <g id="PathCollection_67">
    <g clip-path="url(#p0ffa2a0dd6)">
     <use style="stroke:#000000;" x="326.523752" xlink:href="#mc96533d280" y="274.039913"/>
    </g>
   </g>
   <g id="PathCollection_68">
    <g clip-path="url(#p0ffa2a0dd6)">
     <use style="stroke:#000000;" x="329.044561" xlink:href="#mc96533d280" y="260.568277"/>
    </g>
   </g>
   <g id="PathCollection_69">
    <g clip-path="url(#p0ffa2a0dd6)">
     <use style="stroke:#000000;" x="331.56537" xlink:href="#mc96533d280" y="276.719487"/>
    </g>
   </g>
   <g id="PathCollection_70">
    <g clip-path="url(#p0ffa2a0dd6)">
     <use style="stroke:#000000;" x="334.08618" xlink:href="#mc96533d280" y="280.093731"/>
    </g>
   </g>
   <g id="PathCollection_71">
    <defs>
     <path d="M 0 -2 
L -0.449028 -0.618034 
L -1.902113 -0.618034 
L -0.726543 0.236068 
L -1.175571 1.618034 
L -0 0.763932 
L 1.175571 1.618034 
L 0.726543 0.236068 
L 1.902113 -0.618034 
L 0.449028 -0.618034 
z
" id="m9b849f635b" style="stroke:#000000;"/>
    </defs>
    <g clip-path="url(#p0ffa2a0dd6)">
     <use style="stroke:#000000;" x="343.809301" xlink:href="#m9b849f635b" y="267.295595"/>
    </g>
   </g>
   <g id="PathCollection_72">
    <g clip-path="url(#p0ffa2a0dd6)">
     <use style="stroke:#000000;" x="346.33011" xlink:href="#m9b849f635b" y="268.955717"/>
    </g>
   </g>
   <g id="PathCollection_73">
    <g clip-path="url(#p0ffa2a0dd6)">
     <use style="stroke:#000000;" x="348.850919" xlink:href="#m9b849f635b" y="284.040573"/>
    </g>
   </g>
   <g id="PathCollection_74">
    <g clip-path="url(#p0ffa2a0dd6)">
     <use style="stroke:#000000;" x="351.371728" xlink:href="#m9b849f635b" y="253.309572"/>
    </g>
   </g>
   <g id="PathCollection_75">
    <g clip-path="url(#p0ffa2a0dd6)">
     <use style="stroke:#000000;" x="353.892538" xlink:href="#m9b849f635b" y="280.95469"/>
    </g>
   </g>
   <g id="PathCollection_76">
    <g clip-path="url(#p0ffa2a0dd6)">
     <use style="stroke:#000000;" x="356.413347" xlink:href="#m9b849f635b" y="285.808653"/>
    </g>
   </g>
   <g id="PathCollection_77">
    <g clip-path="url(#p0ffa2a0dd6)">
     <use style="stroke:#000000;" x="358.934156" xlink:href="#m9b849f635b" y="276.506324"/>
    </g>
   </g>
   <g id="PathCollection_78">
    <g clip-path="url(#p0ffa2a0dd6)">
     <use style="stroke:#000000;" x="361.454965" xlink:href="#m9b849f635b" y="256.431487"/>
    </g>
   </g>
   <g id="PathCollection_79">
    <g clip-path="url(#p0ffa2a0dd6)">
     <use style="stroke:#000000;" x="363.975774" xlink:href="#m9b849f635b" y="276.833053"/>
    </g>
   </g>
   <g id="PathCollection_80">
    <g clip-path="url(#p0ffa2a0dd6)">
     <use style="stroke:#000000;" x="366.496583" xlink:href="#m9b849f635b" y="265.171076"/>
    </g>
   </g>
   <g id="PathCollection_81">
    <g clip-path="url(#p0ffa2a0dd6)">
     <use style="stroke:#000000;" x="376.219705" xlink:href="#m23266b989a" y="264.082881"/>
    </g>
   </g>
   <g id="PathCollection_82">
    <g clip-path="url(#p0ffa2a0dd6)">
     <use style="stroke:#000000;" x="378.740514" xlink:href="#m23266b989a" y="257.694798"/>
    </g>
   </g>
   <g id="PathCollection_83">
    <g clip-path="url(#p0ffa2a0dd6)">
     <use style="stroke:#000000;" x="381.261323" xlink:href="#m23266b989a" y="276.314061"/>
    </g>
   </g>
   <g id="PathCollection_84">
    <g clip-path="url(#p0ffa2a0dd6)">
     <use style="stroke:#000000;" x="383.782132" xlink:href="#m23266b989a" y="258.666229"/>
    </g>
   </g>
   <g id="PathCollection_85">
    <g clip-path="url(#p0ffa2a0dd6)">
     <use style="stroke:#000000;" x="386.302941" xlink:href="#m23266b989a" y="279.122643"/>
    </g>
   </g>
   <g id="PathCollection_86">
    <g clip-path="url(#p0ffa2a0dd6)">
     <use style="stroke:#000000;" x="388.823751" xlink:href="#m23266b989a" y="286.887996"/>
    </g>
   </g>
   <g id="PathCollection_87">
    <g clip-path="url(#p0ffa2a0dd6)">
     <use style="stroke:#000000;" x="391.34456" xlink:href="#m23266b989a" y="266.861388"/>
    </g>
   </g>
   <g id="PathCollection_88">
    <g clip-path="url(#p0ffa2a0dd6)">
     <use style="stroke:#000000;" x="393.865369" xlink:href="#m23266b989a" y="260.972809"/>
    </g>
   </g>
   <g id="PathCollection_89">
    <g clip-path="url(#p0ffa2a0dd6)">
     <use style="stroke:#000000;" x="396.386178" xlink:href="#m23266b989a" y="269.623374"/>
    </g>
   </g>
   <g id="PathCollection_90">
    <g clip-path="url(#p0ffa2a0dd6)">
     <use style="stroke:#000000;" x="398.906987" xlink:href="#m23266b989a" y="263.695788"/>
    </g>
   </g>
   <g id="PathCollection_91">
    <g clip-path="url(#p0ffa2a0dd6)">
     <use style="stroke:#000000;stroke-width:1.5;" x="408.630109" xlink:href="#m65f9596081" y="256.949425"/>
    </g>
   </g>
   <g id="PathCollection_92">
    <g clip-path="url(#p0ffa2a0dd6)">
     <use style="stroke:#000000;stroke-width:1.5;" x="411.150918" xlink:href="#m65f9596081" y="251.824004"/>
    </g>
   </g>
   <g id="PathCollection_93">
    <g clip-path="url(#p0ffa2a0dd6)">
     <use style="stroke:#000000;stroke-width:1.5;" x="413.671727" xlink:href="#m65f9596081" y="266.42931"/>
    </g>
   </g>
   <g id="PathCollection_94">
    <g clip-path="url(#p0ffa2a0dd6)">
     <use style="stroke:#000000;stroke-width:1.5;" x="416.192536" xlink:href="#m65f9596081" y="253.406678"/>
    </g>
   </g>
   <g id="PathCollection_95">
    <g clip-path="url(#p0ffa2a0dd6)">
     <use style="stroke:#000000;stroke-width:1.5;" x="418.713345" xlink:href="#m65f9596081" y="270.8524"/>
    </g>
   </g>
   <g id="PathCollection_96">
    <g clip-path="url(#p0ffa2a0dd6)">
     <use style="stroke:#000000;stroke-width:1.5;" x="421.234155" xlink:href="#m65f9596081" y="283.359672"/>
    </g>
   </g>
   <g id="PathCollection_97">
    <g clip-path="url(#p0ffa2a0dd6)">
     <use style="stroke:#000000;stroke-width:1.5;" x="423.754964" xlink:href="#m65f9596081" y="258.897063"/>
    </g>
   </g>
   <g id="PathCollection_98">
    <g clip-path="url(#p0ffa2a0dd6)">
     <use style="stroke:#000000;stroke-width:1.5;" x="426.275773" xlink:href="#m65f9596081" y="252.253511"/>
    </g>
   </g>
   <g id="PathCollection_99">
    <g clip-path="url(#p0ffa2a0dd6)">
     <use style="stroke:#000000;stroke-width:1.5;" x="428.796582" xlink:href="#m65f9596081" y="267.664174"/>
    </g>
   </g>
   <g id="PathCollection_100">
    <g clip-path="url(#p0ffa2a0dd6)">
     <use style="stroke:#000000;stroke-width:1.5;" x="431.317391" xlink:href="#m65f9596081" y="260.537779"/>
    </g>
   </g>
   <g id="PathCollection_101">
    <g clip-path="url(#p0ffa2a0dd6)">
     <use style="stroke:#000000;" x="441.040513" xlink:href="#mc96533d280" y="325.452146"/>
    </g>
   </g>
   <g id="PathCollection_102">
    <g clip-path="url(#p0ffa2a0dd6)">
     <use style="stroke:#000000;" x="443.561322" xlink:href="#mc96533d280" y="304.882245"/>
    </g>
   </g>
   <g id="PathCollection_103">
    <g clip-path="url(#p0ffa2a0dd6)">
     <use style="stroke:#000000;" x="446.082131" xlink:href="#mc96533d280" y="329.670057"/>
    </g>
   </g>
   <g id="PathCollection_104">
    <g clip-path="url(#p0ffa2a0dd6)">
     <use style="stroke:#000000;" x="448.60294" xlink:href="#mc96533d280" y="308.046455"/>
    </g>
   </g>
   <g id="PathCollection_105">
    <g clip-path="url(#p0ffa2a0dd6)">
     <use style="stroke:#000000;" x="451.123749" xlink:href="#mc96533d280" y="317.54794"/>
    </g>
   </g>
   <g id="PathCollection_106">
    <g clip-path="url(#p0ffa2a0dd6)">
     <use style="stroke:#000000;" x="453.644559" xlink:href="#mc96533d280" y="323.041663"/>
    </g>
   </g>
   <g id="PathCollection_107">
    <g clip-path="url(#p0ffa2a0dd6)">
     <use style="stroke:#000000;" x="456.165368" xlink:href="#mc96533d280" y="299.453187"/>
    </g>
   </g>
   <g id="PathCollection_108">
    <g clip-path="url(#p0ffa2a0dd6)">
     <use style="stroke:#000000;" x="458.686177" xlink:href="#mc96533d280" y="285.221379"/>
    </g>
   </g>
   <g id="PathCollection_109">
    <g clip-path="url(#p0ffa2a0dd6)">
     <use style="stroke:#000000;" x="461.206986" xlink:href="#mc96533d280" y="261.202564"/>
    </g>
   </g>
   <g id="PathCollection_110">
    <g clip-path="url(#p0ffa2a0dd6)">
     <use style="stroke:#000000;" x="463.727795" xlink:href="#mc96533d280" y="223.127965"/>
    </g>
   </g>
   <g id="matplotlib.axis_1">
    <g id="xtick_1">
     <g id="line2d_1">
      <defs>
       <path d="M 0 0 
L 0 3.5 
" id="m221ef11582" style="stroke:#000000;stroke-width:0.8;"/>
      </defs>
      <g>
       <use style="stroke:#000000;stroke-width:0.8;" x="125.039074" xlink:href="#m221ef11582" y="342.442644"/>
      </g>
     </g>
     <g id="text_1">
      <!-- L2N -->
      <defs>
       <path d="M 9.8125 72.90625 
L 19.671875 72.90625 
L 19.671875 8.296875 
L 55.171875 8.296875 
L 55.171875 0 
L 9.8125 0 
z
" id="DejaVuSans-76"/>
       <path d="M 19.1875 8.296875 
L 53.609375 8.296875 
L 53.609375 0 
L 7.328125 0 
L 7.328125 8.296875 
Q 12.9375 14.109375 22.625 23.890625 
Q 32.328125 33.6875 34.8125 36.53125 
Q 39.546875 41.84375 41.421875 45.53125 
Q 43.3125 49.21875 43.3125 52.78125 
Q 43.3125 58.59375 39.234375 62.25 
Q 35.15625 65.921875 28.609375 65.921875 
Q 23.96875 65.921875 18.8125 64.3125 
Q 13.671875 62.703125 7.8125 59.421875 
L 7.8125 69.390625 
Q 13.765625 71.78125 18.9375 73 
Q 24.125 74.21875 28.421875 74.21875 
Q 39.75 74.21875 46.484375 68.546875 
Q 53.21875 62.890625 53.21875 53.421875 
Q 53.21875 48.921875 51.53125 44.890625 
Q 49.859375 40.875 45.40625 35.40625 
Q 44.1875 33.984375 37.640625 27.21875 
Q 31.109375 20.453125 19.1875 8.296875 
z
" id="DejaVuSans-50"/>
       <path d="M 9.8125 72.90625 
L 23.09375 72.90625 
L 55.421875 11.921875 
L 55.421875 72.90625 
L 64.984375 72.90625 
L 64.984375 0 
L 51.703125 0 
L 19.390625 60.984375 
L 19.390625 0 
L 9.8125 0 
z
" id="DejaVuSans-78"/>
      </defs>
      <g transform="translate(115.847459 370.454653)rotate(-45)scale(0.11 -0.11)">
       <use xlink:href="#DejaVuSans-76"/>
       <use x="55.712891" xlink:href="#DejaVuSans-50"/>
       <use x="119.335938" xlink:href="#DejaVuSans-78"/>
      </g>
     </g>
    </g>
    <g id="xtick_2">
     <g id="line2d_2">
      <g>
       <use style="stroke:#000000;stroke-width:0.8;" x="157.449478" xlink:href="#m221ef11582" y="342.442644"/>
      </g>
     </g>
     <g id="text_2">
      <!-- L2F -->
      <defs>
       <path d="M 9.8125 72.90625 
L 51.703125 72.90625 
L 51.703125 64.59375 
L 19.671875 64.59375 
L 19.671875 43.109375 
L 48.578125 43.109375 
L 48.578125 34.8125 
L 19.671875 34.8125 
L 19.671875 0 
L 9.8125 0 
z
" id="DejaVuSans-70"/>
      </defs>
      <g transform="translate(149.603244 369.109272)rotate(-45)scale(0.11 -0.11)">
       <use xlink:href="#DejaVuSans-76"/>
       <use x="55.712891" xlink:href="#DejaVuSans-50"/>
       <use x="119.335938" xlink:href="#DejaVuSans-70"/>
      </g>
     </g>
    </g>
    <g id="xtick_3">
     <g id="line2d_3">
      <g>
       <use style="stroke:#000000;stroke-width:0.8;" x="189.859882" xlink:href="#m221ef11582" y="342.442644"/>
      </g>
     </g>
     <g id="text_3">
      <!-- Prog-NN -->
      <defs>
       <path d="M 19.671875 64.796875 
L 19.671875 37.40625 
L 32.078125 37.40625 
Q 38.96875 37.40625 42.71875 40.96875 
Q 46.484375 44.53125 46.484375 51.125 
Q 46.484375 57.671875 42.71875 61.234375 
Q 38.96875 64.796875 32.078125 64.796875 
z
M 9.8125 72.90625 
L 32.078125 72.90625 
Q 44.34375 72.90625 50.609375 67.359375 
Q 56.890625 61.8125 56.890625 51.125 
Q 56.890625 40.328125 50.609375 34.8125 
Q 44.34375 29.296875 32.078125 29.296875 
L 19.671875 29.296875 
L 19.671875 0 
L 9.8125 0 
z
" id="DejaVuSans-80"/>
       <path d="M 41.109375 46.296875 
Q 39.59375 47.171875 37.8125 47.578125 
Q 36.03125 48 33.890625 48 
Q 26.265625 48 22.1875 43.046875 
Q 18.109375 38.09375 18.109375 28.8125 
L 18.109375 0 
L 9.078125 0 
L 9.078125 54.6875 
L 18.109375 54.6875 
L 18.109375 46.1875 
Q 20.953125 51.171875 25.484375 53.578125 
Q 30.03125 56 36.53125 56 
Q 37.453125 56 38.578125 55.875 
Q 39.703125 55.765625 41.0625 55.515625 
z
" id="DejaVuSans-114"/>
       <path d="M 30.609375 48.390625 
Q 23.390625 48.390625 19.1875 42.75 
Q 14.984375 37.109375 14.984375 27.296875 
Q 14.984375 17.484375 19.15625 11.84375 
Q 23.34375 6.203125 30.609375 6.203125 
Q 37.796875 6.203125 41.984375 11.859375 
Q 46.1875 17.53125 46.1875 27.296875 
Q 46.1875 37.015625 41.984375 42.703125 
Q 37.796875 48.390625 30.609375 48.390625 
z
M 30.609375 56 
Q 42.328125 56 49.015625 48.375 
Q 55.71875 40.765625 55.71875 27.296875 
Q 55.71875 13.875 49.015625 6.21875 
Q 42.328125 -1.421875 30.609375 -1.421875 
Q 18.84375 -1.421875 12.171875 6.21875 
Q 5.515625 13.875 5.515625 27.296875 
Q 5.515625 40.765625 12.171875 48.375 
Q 18.84375 56 30.609375 56 
z
" id="DejaVuSans-111"/>
       <path d="M 45.40625 27.984375 
Q 45.40625 37.75 41.375 43.109375 
Q 37.359375 48.484375 30.078125 48.484375 
Q 22.859375 48.484375 18.828125 43.109375 
Q 14.796875 37.75 14.796875 27.984375 
Q 14.796875 18.265625 18.828125 12.890625 
Q 22.859375 7.515625 30.078125 7.515625 
Q 37.359375 7.515625 41.375 12.890625 
Q 45.40625 18.265625 45.40625 27.984375 
z
M 54.390625 6.78125 
Q 54.390625 -7.171875 48.1875 -13.984375 
Q 42 -20.796875 29.203125 -20.796875 
Q 24.46875 -20.796875 20.265625 -20.09375 
Q 16.0625 -19.390625 12.109375 -17.921875 
L 12.109375 -9.1875 
Q 16.0625 -11.328125 19.921875 -12.34375 
Q 23.78125 -13.375 27.78125 -13.375 
Q 36.625 -13.375 41.015625 -8.765625 
Q 45.40625 -4.15625 45.40625 5.171875 
L 45.40625 9.625 
Q 42.625 4.78125 38.28125 2.390625 
Q 33.9375 0 27.875 0 
Q 17.828125 0 11.671875 7.65625 
Q 5.515625 15.328125 5.515625 27.984375 
Q 5.515625 40.671875 11.671875 48.328125 
Q 17.828125 56 27.875 56 
Q 33.9375 56 38.28125 53.609375 
Q 42.625 51.21875 45.40625 46.390625 
L 45.40625 54.6875 
L 54.390625 54.6875 
z
" id="DejaVuSans-103"/>
       <path d="M 4.890625 31.390625 
L 31.203125 31.390625 
L 31.203125 23.390625 
L 4.890625 23.390625 
z
" id="DejaVuSans-45"/>
      </defs>
      <g transform="translate(164.052142 387.070779)rotate(-45)scale(0.11 -0.11)">
       <use xlink:href="#DejaVuSans-80"/>
       <use x="58.552734" xlink:href="#DejaVuSans-114"/>
       <use x="97.416016" xlink:href="#DejaVuSans-111"/>
       <use x="158.597656" xlink:href="#DejaVuSans-103"/>
       <use x="222.074219" xlink:href="#DejaVuSans-45"/>
       <use x="258.158203" xlink:href="#DejaVuSans-78"/>
       <use x="332.962891" xlink:href="#DejaVuSans-78"/>
      </g>
     </g>
    </g>
    <g id="xtick_4">
     <g id="line2d_4">
      <g>
       <use style="stroke:#000000;stroke-width:0.8;" x="222.270286" xlink:href="#m221ef11582" y="342.442644"/>
      </g>
     </g>
     <g id="text_4">
      <!-- DF-CNN -->
      <defs>
       <path d="M 19.671875 64.796875 
L 19.671875 8.109375 
L 31.59375 8.109375 
Q 46.6875 8.109375 53.6875 14.9375 
Q 60.6875 21.78125 60.6875 36.53125 
Q 60.6875 51.171875 53.6875 57.984375 
Q 46.6875 64.796875 31.59375 64.796875 
z
M 9.8125 72.90625 
L 30.078125 72.90625 
Q 51.265625 72.90625 61.171875 64.09375 
Q 71.09375 55.28125 71.09375 36.53125 
Q 71.09375 17.671875 61.125 8.828125 
Q 51.171875 0 30.078125 0 
L 9.8125 0 
z
" id="DejaVuSans-68"/>
       <path d="M 64.40625 67.28125 
L 64.40625 56.890625 
Q 59.421875 61.53125 53.78125 63.8125 
Q 48.140625 66.109375 41.796875 66.109375 
Q 29.296875 66.109375 22.65625 58.46875 
Q 16.015625 50.828125 16.015625 36.375 
Q 16.015625 21.96875 22.65625 14.328125 
Q 29.296875 6.6875 41.796875 6.6875 
Q 48.140625 6.6875 53.78125 8.984375 
Q 59.421875 11.28125 64.40625 15.921875 
L 64.40625 5.609375 
Q 59.234375 2.09375 53.4375 0.328125 
Q 47.65625 -1.421875 41.21875 -1.421875 
Q 24.65625 -1.421875 15.125 8.703125 
Q 5.609375 18.84375 5.609375 36.375 
Q 5.609375 53.953125 15.125 64.078125 
Q 24.65625 74.21875 41.21875 74.21875 
Q 47.75 74.21875 53.53125 72.484375 
Q 59.328125 70.75 64.40625 67.28125 
z
" id="DejaVuSans-67"/>
      </defs>
      <g transform="translate(197.841956 385.691368)rotate(-45)scale(0.11 -0.11)">
       <use xlink:href="#DejaVuSans-68"/>
       <use x="77.001953" xlink:href="#DejaVuSans-70"/>
       <use x="134.521484" xlink:href="#DejaVuSans-45"/>
       <use x="170.605469" xlink:href="#DejaVuSans-67"/>
       <use x="240.429688" xlink:href="#DejaVuSans-78"/>
       <use x="315.234375" xlink:href="#DejaVuSans-78"/>
      </g>
     </g>
    </g>
    <g id="xtick_5">
     <g id="line2d_5">
      <g>
       <use style="stroke:#000000;stroke-width:0.8;" x="254.68069" xlink:href="#m221ef11582" y="342.442644"/>
      </g>
     </g>
     <g id="text_5">
      <!-- LwF -->
      <defs>
       <path d="M 4.203125 54.6875 
L 13.1875 54.6875 
L 24.421875 12.015625 
L 35.59375 54.6875 
L 46.1875 54.6875 
L 57.421875 12.015625 
L 68.609375 54.6875 
L 77.59375 54.6875 
L 63.28125 0 
L 52.6875 0 
L 40.921875 44.828125 
L 29.109375 0 
L 18.5 0 
z
" id="DejaVuSans-119"/>
      </defs>
      <g transform="translate(245.422231 370.521497)rotate(-45)scale(0.11 -0.11)">
       <use xlink:href="#DejaVuSans-76"/>
       <use x="55.712891" xlink:href="#DejaVuSans-119"/>
       <use x="137.5" xlink:href="#DejaVuSans-70"/>
      </g>
     </g>
    </g>
    <g id="xtick_6">
     <g id="line2d_6">
      <g>
       <use style="stroke:#000000;stroke-width:0.8;" x="287.091094" xlink:href="#m221ef11582" y="342.442644"/>
      </g>
     </g>
     <g id="text_6">
      <!-- EWC -->
      <defs>
       <path d="M 9.8125 72.90625 
L 55.90625 72.90625 
L 55.90625 64.59375 
L 19.671875 64.59375 
L 19.671875 43.015625 
L 54.390625 43.015625 
L 54.390625 34.71875 
L 19.671875 34.71875 
L 19.671875 8.296875 
L 56.78125 8.296875 
L 56.78125 0 
L 9.8125 0 
z
" id="DejaVuSans-69"/>
       <path d="M 3.328125 72.90625 
L 13.28125 72.90625 
L 28.609375 11.28125 
L 43.890625 72.90625 
L 54.984375 72.90625 
L 70.3125 11.28125 
L 85.59375 72.90625 
L 95.609375 72.90625 
L 77.296875 0 
L 64.890625 0 
L 49.515625 63.28125 
L 33.984375 0 
L 21.578125 0 
z
" id="DejaVuSans-87"/>
      </defs>
      <g transform="translate(274.964433 373.389699)rotate(-45)scale(0.11 -0.11)">
       <use xlink:href="#DejaVuSans-69"/>
       <use x="63.183594" xlink:href="#DejaVuSans-87"/>
       <use x="162.060547" xlink:href="#DejaVuSans-67"/>
      </g>
     </g>
    </g>
    <g id="xtick_7">
     <g id="line2d_7">
      <g>
       <use style="stroke:#000000;stroke-width:0.8;" x="319.501498" xlink:href="#m221ef11582" y="342.442644"/>
      </g>
     </g>
     <g id="text_7">
      <!-- O-EWC -->
      <defs>
       <path d="M 39.40625 66.21875 
Q 28.65625 66.21875 22.328125 58.203125 
Q 16.015625 50.203125 16.015625 36.375 
Q 16.015625 22.609375 22.328125 14.59375 
Q 28.65625 6.59375 39.40625 6.59375 
Q 50.140625 6.59375 56.421875 14.59375 
Q 62.703125 22.609375 62.703125 36.375 
Q 62.703125 50.203125 56.421875 58.203125 
Q 50.140625 66.21875 39.40625 66.21875 
z
M 39.40625 74.21875 
Q 54.734375 74.21875 63.90625 63.9375 
Q 73.09375 53.65625 73.09375 36.375 
Q 73.09375 19.140625 63.90625 8.859375 
Q 54.734375 -1.421875 39.40625 -1.421875 
Q 24.03125 -1.421875 14.8125 8.828125 
Q 5.609375 19.09375 5.609375 36.375 
Q 5.609375 53.65625 14.8125 63.9375 
Q 24.03125 74.21875 39.40625 74.21875 
z
" id="DejaVuSans-79"/>
      </defs>
      <g transform="translate(298.231836 382.5327)rotate(-45)scale(0.11 -0.11)">
       <use xlink:href="#DejaVuSans-79"/>
       <use x="81.460938" xlink:href="#DejaVuSans-45"/>
       <use x="117.544922" xlink:href="#DejaVuSans-69"/>
       <use x="180.728516" xlink:href="#DejaVuSans-87"/>
       <use x="279.605469" xlink:href="#DejaVuSans-67"/>
      </g>
     </g>
    </g>
    <g id="xtick_8">
     <g id="line2d_8">
      <g>
       <use style="stroke:#000000;stroke-width:0.8;" x="351.911902" xlink:href="#m221ef11582" y="342.442644"/>
      </g>
     </g>
     <g id="text_8">
      <!-- SI -->
      <defs>
       <path d="M 53.515625 70.515625 
L 53.515625 60.890625 
Q 47.90625 63.578125 42.921875 64.890625 
Q 37.9375 66.21875 33.296875 66.21875 
Q 25.25 66.21875 20.875 63.09375 
Q 16.5 59.96875 16.5 54.203125 
Q 16.5 49.359375 19.40625 46.890625 
Q 22.3125 44.4375 30.421875 42.921875 
L 36.375 41.703125 
Q 47.40625 39.59375 52.65625 34.296875 
Q 57.90625 29 57.90625 20.125 
Q 57.90625 9.515625 50.796875 4.046875 
Q 43.703125 -1.421875 29.984375 -1.421875 
Q 24.8125 -1.421875 18.96875 -0.25 
Q 13.140625 0.921875 6.890625 3.21875 
L 6.890625 13.375 
Q 12.890625 10.015625 18.65625 8.296875 
Q 24.421875 6.59375 29.984375 6.59375 
Q 38.421875 6.59375 43.015625 9.90625 
Q 47.609375 13.234375 47.609375 19.390625 
Q 47.609375 24.75 44.3125 27.78125 
Q 41.015625 30.8125 33.5 32.328125 
L 27.484375 33.5 
Q 16.453125 35.6875 11.515625 40.375 
Q 6.59375 45.0625 6.59375 53.421875 
Q 6.59375 63.09375 13.40625 68.65625 
Q 20.21875 74.21875 32.171875 74.21875 
Q 37.3125 74.21875 42.625 73.28125 
Q 47.953125 72.359375 53.515625 70.515625 
z
" id="DejaVuSans-83"/>
       <path d="M 9.8125 72.90625 
L 19.671875 72.90625 
L 19.671875 0 
L 9.8125 0 
z
" id="DejaVuSans-73"/>
      </defs>
      <g transform="translate(350.589612 362.585328)rotate(-45)scale(0.11 -0.11)">
       <use xlink:href="#DejaVuSans-83"/>
       <use x="63.476562" xlink:href="#DejaVuSans-73"/>
      </g>
     </g>
    </g>
    <g id="xtick_9">
     <g id="line2d_9">
      <g>
       <use style="stroke:#000000;stroke-width:0.8;" x="384.322306" xlink:href="#m221ef11582" y="342.442644"/>
      </g>
     </g>
     <g id="text_9">
      <!-- Replay  -->
      <defs>
       <path d="M 44.390625 34.1875 
Q 47.5625 33.109375 50.5625 29.59375 
Q 53.5625 26.078125 56.59375 19.921875 
L 66.609375 0 
L 56 0 
L 46.6875 18.703125 
Q 43.0625 26.03125 39.671875 28.421875 
Q 36.28125 30.8125 30.421875 30.8125 
L 19.671875 30.8125 
L 19.671875 0 
L 9.8125 0 
L 9.8125 72.90625 
L 32.078125 72.90625 
Q 44.578125 72.90625 50.734375 67.671875 
Q 56.890625 62.453125 56.890625 51.90625 
Q 56.890625 45.015625 53.6875 40.46875 
Q 50.484375 35.9375 44.390625 34.1875 
z
M 19.671875 64.796875 
L 19.671875 38.921875 
L 32.078125 38.921875 
Q 39.203125 38.921875 42.84375 42.21875 
Q 46.484375 45.515625 46.484375 51.90625 
Q 46.484375 58.296875 42.84375 61.546875 
Q 39.203125 64.796875 32.078125 64.796875 
z
" id="DejaVuSans-82"/>
       <path d="M 56.203125 29.59375 
L 56.203125 25.203125 
L 14.890625 25.203125 
Q 15.484375 15.921875 20.484375 11.0625 
Q 25.484375 6.203125 34.421875 6.203125 
Q 39.59375 6.203125 44.453125 7.46875 
Q 49.3125 8.734375 54.109375 11.28125 
L 54.109375 2.78125 
Q 49.265625 0.734375 44.1875 -0.34375 
Q 39.109375 -1.421875 33.890625 -1.421875 
Q 20.796875 -1.421875 13.15625 6.1875 
Q 5.515625 13.8125 5.515625 26.8125 
Q 5.515625 40.234375 12.765625 48.109375 
Q 20.015625 56 32.328125 56 
Q 43.359375 56 49.78125 48.890625 
Q 56.203125 41.796875 56.203125 29.59375 
z
M 47.21875 32.234375 
Q 47.125 39.59375 43.09375 43.984375 
Q 39.0625 48.390625 32.421875 48.390625 
Q 24.90625 48.390625 20.390625 44.140625 
Q 15.875 39.890625 15.1875 32.171875 
z
" id="DejaVuSans-101"/>
       <path d="M 18.109375 8.203125 
L 18.109375 -20.796875 
L 9.078125 -20.796875 
L 9.078125 54.6875 
L 18.109375 54.6875 
L 18.109375 46.390625 
Q 20.953125 51.265625 25.265625 53.625 
Q 29.59375 56 35.59375 56 
Q 45.5625 56 51.78125 48.09375 
Q 58.015625 40.1875 58.015625 27.296875 
Q 58.015625 14.40625 51.78125 6.484375 
Q 45.5625 -1.421875 35.59375 -1.421875 
Q 29.59375 -1.421875 25.265625 0.953125 
Q 20.953125 3.328125 18.109375 8.203125 
z
M 48.6875 27.296875 
Q 48.6875 37.203125 44.609375 42.84375 
Q 40.53125 48.484375 33.40625 48.484375 
Q 26.265625 48.484375 22.1875 42.84375 
Q 18.109375 37.203125 18.109375 27.296875 
Q 18.109375 17.390625 22.1875 11.75 
Q 26.265625 6.109375 33.40625 6.109375 
Q 40.53125 6.109375 44.609375 11.75 
Q 48.6875 17.390625 48.6875 27.296875 
z
" id="DejaVuSans-112"/>
       <path d="M 9.421875 75.984375 
L 18.40625 75.984375 
L 18.40625 0 
L 9.421875 0 
z
" id="DejaVuSans-108"/>
       <path d="M 34.28125 27.484375 
Q 23.390625 27.484375 19.1875 25 
Q 14.984375 22.515625 14.984375 16.5 
Q 14.984375 11.71875 18.140625 8.90625 
Q 21.296875 6.109375 26.703125 6.109375 
Q 34.1875 6.109375 38.703125 11.40625 
Q 43.21875 16.703125 43.21875 25.484375 
L 43.21875 27.484375 
z
M 52.203125 31.203125 
L 52.203125 0 
L 43.21875 0 
L 43.21875 8.296875 
Q 40.140625 3.328125 35.546875 0.953125 
Q 30.953125 -1.421875 24.3125 -1.421875 
Q 15.921875 -1.421875 10.953125 3.296875 
Q 6 8.015625 6 15.921875 
Q 6 25.140625 12.171875 29.828125 
Q 18.359375 34.515625 30.609375 34.515625 
L 43.21875 34.515625 
L 43.21875 35.40625 
Q 43.21875 41.609375 39.140625 45 
Q 35.0625 48.390625 27.6875 48.390625 
Q 23 48.390625 18.546875 47.265625 
Q 14.109375 46.140625 10.015625 43.890625 
L 10.015625 52.203125 
Q 14.9375 54.109375 19.578125 55.046875 
Q 24.21875 56 28.609375 56 
Q 40.484375 56 46.34375 49.84375 
Q 52.203125 43.703125 52.203125 31.203125 
z
" id="DejaVuSans-97"/>
       <path d="M 32.171875 -5.078125 
Q 28.375 -14.84375 24.75 -17.8125 
Q 21.140625 -20.796875 15.09375 -20.796875 
L 7.90625 -20.796875 
L 7.90625 -13.28125 
L 13.1875 -13.28125 
Q 16.890625 -13.28125 18.9375 -11.515625 
Q 21 -9.765625 23.484375 -3.21875 
L 25.09375 0.875 
L 2.984375 54.6875 
L 12.5 54.6875 
L 29.59375 11.921875 
L 46.6875 54.6875 
L 56.203125 54.6875 
z
" id="DejaVuSans-121"/>
       <path id="DejaVuSans-32"/>
      </defs>
      <g transform="translate(361.450826 384.134518)rotate(-45)scale(0.11 -0.11)">
       <use xlink:href="#DejaVuSans-82"/>
       <use x="64.982422" xlink:href="#DejaVuSans-101"/>
       <use x="126.505859" xlink:href="#DejaVuSans-112"/>
       <use x="189.982422" xlink:href="#DejaVuSans-108"/>
       <use x="217.765625" xlink:href="#DejaVuSans-97"/>
       <use x="279.044922" xlink:href="#DejaVuSans-121"/>
       <use x="338.224609" xlink:href="#DejaVuSans-32"/>
      </g>
      <!--  (increasing amount) -->
      <defs>
       <path d="M 31 75.875 
Q 24.46875 64.65625 21.28125 53.65625 
Q 18.109375 42.671875 18.109375 31.390625 
Q 18.109375 20.125 21.3125 9.0625 
Q 24.515625 -2 31 -13.1875 
L 23.1875 -13.1875 
Q 15.875 -1.703125 12.234375 9.375 
Q 8.59375 20.453125 8.59375 31.390625 
Q 8.59375 42.28125 12.203125 53.3125 
Q 15.828125 64.359375 23.1875 75.875 
z
" id="DejaVuSans-40"/>
       <path d="M 9.421875 54.6875 
L 18.40625 54.6875 
L 18.40625 0 
L 9.421875 0 
z
M 9.421875 75.984375 
L 18.40625 75.984375 
L 18.40625 64.59375 
L 9.421875 64.59375 
z
" id="DejaVuSans-105"/>
       <path d="M 54.890625 33.015625 
L 54.890625 0 
L 45.90625 0 
L 45.90625 32.71875 
Q 45.90625 40.484375 42.875 44.328125 
Q 39.84375 48.1875 33.796875 48.1875 
Q 26.515625 48.1875 22.3125 43.546875 
Q 18.109375 38.921875 18.109375 30.90625 
L 18.109375 0 
L 9.078125 0 
L 9.078125 54.6875 
L 18.109375 54.6875 
L 18.109375 46.1875 
Q 21.34375 51.125 25.703125 53.5625 
Q 30.078125 56 35.796875 56 
Q 45.21875 56 50.046875 50.171875 
Q 54.890625 44.34375 54.890625 33.015625 
z
" id="DejaVuSans-110"/>
       <path d="M 48.78125 52.59375 
L 48.78125 44.1875 
Q 44.96875 46.296875 41.140625 47.34375 
Q 37.3125 48.390625 33.40625 48.390625 
Q 24.65625 48.390625 19.8125 42.84375 
Q 14.984375 37.3125 14.984375 27.296875 
Q 14.984375 17.28125 19.8125 11.734375 
Q 24.65625 6.203125 33.40625 6.203125 
Q 37.3125 6.203125 41.140625 7.25 
Q 44.96875 8.296875 48.78125 10.40625 
L 48.78125 2.09375 
Q 45.015625 0.34375 40.984375 -0.53125 
Q 36.96875 -1.421875 32.421875 -1.421875 
Q 20.0625 -1.421875 12.78125 6.34375 
Q 5.515625 14.109375 5.515625 27.296875 
Q 5.515625 40.671875 12.859375 48.328125 
Q 20.21875 56 33.015625 56 
Q 37.15625 56 41.109375 55.140625 
Q 45.0625 54.296875 48.78125 52.59375 
z
" id="DejaVuSans-99"/>
       <path d="M 44.28125 53.078125 
L 44.28125 44.578125 
Q 40.484375 46.53125 36.375 47.5 
Q 32.28125 48.484375 27.875 48.484375 
Q 21.1875 48.484375 17.84375 46.4375 
Q 14.5 44.390625 14.5 40.28125 
Q 14.5 37.15625 16.890625 35.375 
Q 19.28125 33.59375 26.515625 31.984375 
L 29.59375 31.296875 
Q 39.15625 29.25 43.1875 25.515625 
Q 47.21875 21.78125 47.21875 15.09375 
Q 47.21875 7.46875 41.1875 3.015625 
Q 35.15625 -1.421875 24.609375 -1.421875 
Q 20.21875 -1.421875 15.453125 -0.5625 
Q 10.6875 0.296875 5.421875 2 
L 5.421875 11.28125 
Q 10.40625 8.6875 15.234375 7.390625 
Q 20.0625 6.109375 24.8125 6.109375 
Q 31.15625 6.109375 34.5625 8.28125 
Q 37.984375 10.453125 37.984375 14.40625 
Q 37.984375 18.0625 35.515625 20.015625 
Q 33.0625 21.96875 24.703125 23.78125 
L 21.578125 24.515625 
Q 13.234375 26.265625 9.515625 29.90625 
Q 5.8125 33.546875 5.8125 39.890625 
Q 5.8125 47.609375 11.28125 51.796875 
Q 16.75 56 26.8125 56 
Q 31.78125 56 36.171875 55.265625 
Q 40.578125 54.546875 44.28125 53.078125 
z
" id="DejaVuSans-115"/>
       <path d="M 52 44.1875 
Q 55.375 50.25 60.0625 53.125 
Q 64.75 56 71.09375 56 
Q 79.640625 56 84.28125 50.015625 
Q 88.921875 44.046875 88.921875 33.015625 
L 88.921875 0 
L 79.890625 0 
L 79.890625 32.71875 
Q 79.890625 40.578125 77.09375 44.375 
Q 74.3125 48.1875 68.609375 48.1875 
Q 61.625 48.1875 57.5625 43.546875 
Q 53.515625 38.921875 53.515625 30.90625 
L 53.515625 0 
L 44.484375 0 
L 44.484375 32.71875 
Q 44.484375 40.625 41.703125 44.40625 
Q 38.921875 48.1875 33.109375 48.1875 
Q 26.21875 48.1875 22.15625 43.53125 
Q 18.109375 38.875 18.109375 30.90625 
L 18.109375 0 
L 9.078125 0 
L 9.078125 54.6875 
L 18.109375 54.6875 
L 18.109375 46.1875 
Q 21.1875 51.21875 25.484375 53.609375 
Q 29.78125 56 35.6875 56 
Q 41.65625 56 45.828125 52.96875 
Q 50 49.953125 52 44.1875 
z
" id="DejaVuSans-109"/>
       <path d="M 8.5 21.578125 
L 8.5 54.6875 
L 17.484375 54.6875 
L 17.484375 21.921875 
Q 17.484375 14.15625 20.5 10.265625 
Q 23.53125 6.390625 29.59375 6.390625 
Q 36.859375 6.390625 41.078125 11.03125 
Q 45.3125 15.671875 45.3125 23.6875 
L 45.3125 54.6875 
L 54.296875 54.6875 
L 54.296875 0 
L 45.3125 0 
L 45.3125 8.40625 
Q 42.046875 3.421875 37.71875 1 
Q 33.40625 -1.421875 27.6875 -1.421875 
Q 18.265625 -1.421875 13.375 4.4375 
Q 8.5 10.296875 8.5 21.578125 
z
M 31.109375 56 
z
" id="DejaVuSans-117"/>
       <path d="M 18.3125 70.21875 
L 18.3125 54.6875 
L 36.8125 54.6875 
L 36.8125 47.703125 
L 18.3125 47.703125 
L 18.3125 18.015625 
Q 18.3125 11.328125 20.140625 9.421875 
Q 21.96875 7.515625 27.59375 7.515625 
L 36.8125 7.515625 
L 36.8125 0 
L 27.59375 0 
Q 17.1875 0 13.234375 3.875 
Q 9.28125 7.765625 9.28125 18.015625 
L 9.28125 47.703125 
L 2.6875 47.703125 
L 2.6875 54.6875 
L 9.28125 54.6875 
L 9.28125 70.21875 
z
" id="DejaVuSans-116"/>
       <path d="M 8.015625 75.875 
L 15.828125 75.875 
Q 23.140625 64.359375 26.78125 53.3125 
Q 30.421875 42.28125 30.421875 31.390625 
Q 30.421875 20.453125 26.78125 9.375 
Q 23.140625 -1.703125 15.828125 -13.1875 
L 8.015625 -13.1875 
Q 14.5 -2 17.703125 9.0625 
Q 20.90625 20.125 20.90625 31.390625 
Q 20.90625 42.671875 17.703125 53.65625 
Q 14.5 64.65625 8.015625 75.875 
z
" id="DejaVuSans-41"/>
      </defs>
      <g transform="translate(317.896209 445.108844)rotate(-45)scale(0.11 -0.11)">
       <use xlink:href="#DejaVuSans-32"/>
       <use x="31.787109" xlink:href="#DejaVuSans-40"/>
       <use x="70.800781" xlink:href="#DejaVuSans-105"/>
       <use x="98.583984" xlink:href="#DejaVuSans-110"/>
       <use x="161.962891" xlink:href="#DejaVuSans-99"/>
       <use x="216.943359" xlink:href="#DejaVuSans-114"/>
       <use x="255.806641" xlink:href="#DejaVuSans-101"/>
       <use x="317.330078" xlink:href="#DejaVuSans-97"/>
       <use x="378.609375" xlink:href="#DejaVuSans-115"/>
       <use x="430.708984" xlink:href="#DejaVuSans-105"/>
       <use x="458.492188" xlink:href="#DejaVuSans-110"/>
       <use x="521.871094" xlink:href="#DejaVuSans-103"/>
       <use x="585.347656" xlink:href="#DejaVuSans-32"/>
       <use x="617.134766" xlink:href="#DejaVuSans-97"/>
       <use x="678.414062" xlink:href="#DejaVuSans-109"/>
       <use x="775.826172" xlink:href="#DejaVuSans-111"/>
       <use x="837.007812" xlink:href="#DejaVuSans-117"/>
       <use x="900.386719" xlink:href="#DejaVuSans-110"/>
       <use x="963.765625" xlink:href="#DejaVuSans-116"/>
       <use x="1002.974609" xlink:href="#DejaVuSans-41"/>
      </g>
     </g>
    </g>
    <g id="xtick_10">
     <g id="line2d_10">
      <g>
       <use style="stroke:#000000;stroke-width:0.8;" x="416.73271" xlink:href="#m221ef11582" y="342.442644"/>
      </g>
     </g>
     <g id="text_10">
      <!-- Replay  -->
      <g transform="translate(393.86123 384.134518)rotate(-45)scale(0.11 -0.11)">
       <use xlink:href="#DejaVuSans-82"/>
       <use x="64.982422" xlink:href="#DejaVuSans-101"/>
       <use x="126.505859" xlink:href="#DejaVuSans-112"/>
       <use x="189.982422" xlink:href="#DejaVuSans-108"/>
       <use x="217.765625" xlink:href="#DejaVuSans-97"/>
       <use x="279.044922" xlink:href="#DejaVuSans-121"/>
       <use x="338.224609" xlink:href="#DejaVuSans-32"/>
      </g>
      <!--  (fixed amount) -->
      <defs>
       <path d="M 37.109375 75.984375 
L 37.109375 68.5 
L 28.515625 68.5 
Q 23.6875 68.5 21.796875 66.546875 
Q 19.921875 64.59375 19.921875 59.515625 
L 19.921875 54.6875 
L 34.71875 54.6875 
L 34.71875 47.703125 
L 19.921875 47.703125 
L 19.921875 0 
L 10.890625 0 
L 10.890625 47.703125 
L 2.296875 47.703125 
L 2.296875 54.6875 
L 10.890625 54.6875 
L 10.890625 58.5 
Q 10.890625 67.625 15.140625 71.796875 
Q 19.390625 75.984375 28.609375 75.984375 
z
" id="DejaVuSans-102"/>
       <path d="M 54.890625 54.6875 
L 35.109375 28.078125 
L 55.90625 0 
L 45.3125 0 
L 29.390625 21.484375 
L 13.484375 0 
L 2.875 0 
L 24.125 28.609375 
L 4.6875 54.6875 
L 15.28125 54.6875 
L 29.78125 35.203125 
L 44.28125 54.6875 
z
" id="DejaVuSans-120"/>
       <path d="M 45.40625 46.390625 
L 45.40625 75.984375 
L 54.390625 75.984375 
L 54.390625 0 
L 45.40625 0 
L 45.40625 8.203125 
Q 42.578125 3.328125 38.25 0.953125 
Q 33.9375 -1.421875 27.875 -1.421875 
Q 17.96875 -1.421875 11.734375 6.484375 
Q 5.515625 14.40625 5.515625 27.296875 
Q 5.515625 40.1875 11.734375 48.09375 
Q 17.96875 56 27.875 56 
Q 33.9375 56 38.25 53.625 
Q 42.578125 51.265625 45.40625 46.390625 
z
M 14.796875 27.296875 
Q 14.796875 17.390625 18.875 11.75 
Q 22.953125 6.109375 30.078125 6.109375 
Q 37.203125 6.109375 41.296875 11.75 
Q 45.40625 17.390625 45.40625 27.296875 
Q 45.40625 37.203125 41.296875 42.84375 
Q 37.203125 48.484375 30.078125 48.484375 
Q 22.953125 48.484375 18.875 42.84375 
Q 14.796875 37.203125 14.796875 27.296875 
z
" id="DejaVuSans-100"/>
      </defs>
      <g transform="translate(371.345359 424.070097)rotate(-45)scale(0.11 -0.11)">
       <use xlink:href="#DejaVuSans-32"/>
       <use x="31.787109" xlink:href="#DejaVuSans-40"/>
       <use x="70.800781" xlink:href="#DejaVuSans-102"/>
       <use x="106.005859" xlink:href="#DejaVuSans-105"/>
       <use x="133.789062" xlink:href="#DejaVuSans-120"/>
       <use x="189.84375" xlink:href="#DejaVuSans-101"/>
       <use x="251.367188" xlink:href="#DejaVuSans-100"/>
       <use x="314.84375" xlink:href="#DejaVuSans-32"/>
       <use x="346.630859" xlink:href="#DejaVuSans-97"/>
       <use x="407.910156" xlink:href="#DejaVuSans-109"/>
       <use x="505.322266" xlink:href="#DejaVuSans-111"/>
       <use x="566.503906" xlink:href="#DejaVuSans-117"/>
       <use x="629.882812" xlink:href="#DejaVuSans-110"/>
       <use x="693.261719" xlink:href="#DejaVuSans-116"/>
       <use x="732.470703" xlink:href="#DejaVuSans-41"/>
      </g>
     </g>
    </g>
    <g id="xtick_11">
     <g id="line2d_11">
      <g>
       <use style="stroke:#000000;stroke-width:0.8;" x="449.143114" xlink:href="#m221ef11582" y="342.442644"/>
      </g>
     </g>
     <g id="text_11">
      <!-- None -->
      <g transform="translate(434.759567 375.646585)rotate(-45)scale(0.11 -0.11)">
       <use xlink:href="#DejaVuSans-78"/>
       <use x="74.804688" xlink:href="#DejaVuSans-111"/>
       <use x="135.986328" xlink:href="#DejaVuSans-110"/>
       <use x="199.365234" xlink:href="#DejaVuSans-101"/>
      </g>
     </g>
    </g>
   </g>
   <g id="matplotlib.axis_2">
    <g id="ytick_1">
     <g id="line2d_12">
      <defs>
       <path d="M 0 0 
L -3.5 0 
" id="mfac8584b17" style="stroke:#000000;stroke-width:0.8;"/>
      </defs>
      <g>
       <use style="stroke:#000000;stroke-width:0.8;" x="73.182428" xlink:href="#mfac8584b17" y="293.626385"/>
      </g>
     </g>
     <g id="text_12">
      <!-- 0.8 -->
      <defs>
       <path d="M 31.78125 66.40625 
Q 24.171875 66.40625 20.328125 58.90625 
Q 16.5 51.421875 16.5 36.375 
Q 16.5 21.390625 20.328125 13.890625 
Q 24.171875 6.390625 31.78125 6.390625 
Q 39.453125 6.390625 43.28125 13.890625 
Q 47.125 21.390625 47.125 36.375 
Q 47.125 51.421875 43.28125 58.90625 
Q 39.453125 66.40625 31.78125 66.40625 
z
M 31.78125 74.21875 
Q 44.046875 74.21875 50.515625 64.515625 
Q 56.984375 54.828125 56.984375 36.375 
Q 56.984375 17.96875 50.515625 8.265625 
Q 44.046875 -1.421875 31.78125 -1.421875 
Q 19.53125 -1.421875 13.0625 8.265625 
Q 6.59375 17.96875 6.59375 36.375 
Q 6.59375 54.828125 13.0625 64.515625 
Q 19.53125 74.21875 31.78125 74.21875 
z
" id="DejaVuSans-48"/>
       <path d="M 10.6875 12.40625 
L 21 12.40625 
L 21 0 
L 10.6875 0 
z
" id="DejaVuSans-46"/>
       <path d="M 31.78125 34.625 
Q 24.75 34.625 20.71875 30.859375 
Q 16.703125 27.09375 16.703125 20.515625 
Q 16.703125 13.921875 20.71875 10.15625 
Q 24.75 6.390625 31.78125 6.390625 
Q 38.8125 6.390625 42.859375 10.171875 
Q 46.921875 13.96875 46.921875 20.515625 
Q 46.921875 27.09375 42.890625 30.859375 
Q 38.875 34.625 31.78125 34.625 
z
M 21.921875 38.8125 
Q 15.578125 40.375 12.03125 44.71875 
Q 8.5 49.078125 8.5 55.328125 
Q 8.5 64.0625 14.71875 69.140625 
Q 20.953125 74.21875 31.78125 74.21875 
Q 42.671875 74.21875 48.875 69.140625 
Q 55.078125 64.0625 55.078125 55.328125 
Q 55.078125 49.078125 51.53125 44.71875 
Q 48 40.375 41.703125 38.8125 
Q 48.828125 37.15625 52.796875 32.3125 
Q 56.78125 27.484375 56.78125 20.515625 
Q 56.78125 9.90625 50.3125 4.234375 
Q 43.84375 -1.421875 31.78125 -1.421875 
Q 19.734375 -1.421875 13.25 4.234375 
Q 6.78125 9.90625 6.78125 20.515625 
Q 6.78125 27.484375 10.78125 32.3125 
Q 14.796875 37.15625 21.921875 38.8125 
z
M 18.3125 54.390625 
Q 18.3125 48.734375 21.84375 45.5625 
Q 25.390625 42.390625 31.78125 42.390625 
Q 38.140625 42.390625 41.71875 45.5625 
Q 45.3125 48.734375 45.3125 54.390625 
Q 45.3125 60.0625 41.71875 63.234375 
Q 38.140625 66.40625 31.78125 66.40625 
Q 25.390625 66.40625 21.84375 63.234375 
Q 18.3125 60.0625 18.3125 54.390625 
z
" id="DejaVuSans-56"/>
      </defs>
      <g transform="translate(31.195553 301.984666)scale(0.22 -0.22)">
       <use xlink:href="#DejaVuSans-48"/>
       <use x="63.623047" xlink:href="#DejaVuSans-46"/>
       <use x="95.410156" xlink:href="#DejaVuSans-56"/>
      </g>
     </g>
    </g>
    <g id="ytick_2">
     <g id="line2d_13">
      <g>
       <use style="stroke:#000000;stroke-width:0.8;" x="73.182428" xlink:href="#mfac8584b17" y="215.69032"/>
      </g>
     </g>
     <g id="text_13">
      <!-- 1.0 -->
      <defs>
       <path d="M 12.40625 8.296875 
L 28.515625 8.296875 
L 28.515625 63.921875 
L 10.984375 60.40625 
L 10.984375 69.390625 
L 28.421875 72.90625 
L 38.28125 72.90625 
L 38.28125 8.296875 
L 54.390625 8.296875 
L 54.390625 0 
L 12.40625 0 
z
" id="DejaVuSans-49"/>
      </defs>
      <g transform="translate(31.195553 224.048602)scale(0.22 -0.22)">
       <use xlink:href="#DejaVuSans-49"/>
       <use x="63.623047" xlink:href="#DejaVuSans-46"/>
       <use x="95.410156" xlink:href="#DejaVuSans-48"/>
      </g>
     </g>
    </g>
    <g id="ytick_3">
     <g id="line2d_14">
      <g>
       <use style="stroke:#000000;stroke-width:0.8;" x="73.182428" xlink:href="#mfac8584b17" y="137.754256"/>
      </g>
     </g>
     <g id="text_14">
      <!-- 1.2 -->
      <g transform="translate(31.195553 146.112537)scale(0.22 -0.22)">
       <use xlink:href="#DejaVuSans-49"/>
       <use x="63.623047" xlink:href="#DejaVuSans-46"/>
       <use x="95.410156" xlink:href="#DejaVuSans-50"/>
      </g>
     </g>
    </g>
    <g id="text_15">
     <!-- Transfer Efficiency after 10 Tasks -->
     <defs>
      <path d="M -0.296875 72.90625 
L 61.375 72.90625 
L 61.375 64.59375 
L 35.5 64.59375 
L 35.5 0 
L 25.59375 0 
L 25.59375 64.59375 
L -0.296875 64.59375 
z
" id="DejaVuSans-84"/>
      <path d="M 9.078125 75.984375 
L 18.109375 75.984375 
L 18.109375 31.109375 
L 44.921875 54.6875 
L 56.390625 54.6875 
L 27.390625 29.109375 
L 57.625 0 
L 45.90625 0 
L 18.109375 26.703125 
L 18.109375 0 
L 9.078125 0 
z
" id="DejaVuSans-107"/>
     </defs>
     <g transform="translate(21.996334 407.463718)rotate(-90)scale(0.25 -0.25)">
      <use xlink:href="#DejaVuSans-84"/>
      <use x="46.333984" xlink:href="#DejaVuSans-114"/>
      <use x="87.447266" xlink:href="#DejaVuSans-97"/>
      <use x="148.726562" xlink:href="#DejaVuSans-110"/>
      <use x="212.105469" xlink:href="#DejaVuSans-115"/>
      <use x="264.205078" xlink:href="#DejaVuSans-102"/>
      <use x="299.410156" xlink:href="#DejaVuSans-101"/>
      <use x="360.933594" xlink:href="#DejaVuSans-114"/>
      <use x="402.046875" xlink:href="#DejaVuSans-32"/>
      <use x="433.833984" xlink:href="#DejaVuSans-69"/>
      <use x="497.017578" xlink:href="#DejaVuSans-102"/>
      <use x="532.222656" xlink:href="#DejaVuSans-102"/>
      <use x="567.427734" xlink:href="#DejaVuSans-105"/>
      <use x="595.210938" xlink:href="#DejaVuSans-99"/>
      <use x="650.191406" xlink:href="#DejaVuSans-105"/>
      <use x="677.974609" xlink:href="#DejaVuSans-101"/>
      <use x="739.498047" xlink:href="#DejaVuSans-110"/>
      <use x="802.876953" xlink:href="#DejaVuSans-99"/>
      <use x="857.857422" xlink:href="#DejaVuSans-121"/>
      <use x="917.037109" xlink:href="#DejaVuSans-32"/>
      <use x="948.824219" xlink:href="#DejaVuSans-97"/>
      <use x="1010.103516" xlink:href="#DejaVuSans-102"/>
      <use x="1043.558594" xlink:href="#DejaVuSans-116"/>
      <use x="1082.767578" xlink:href="#DejaVuSans-101"/>
      <use x="1144.291016" xlink:href="#DejaVuSans-114"/>
      <use x="1185.404297" xlink:href="#DejaVuSans-32"/>
      <use x="1217.191406" xlink:href="#DejaVuSans-49"/>
      <use x="1280.814453" xlink:href="#DejaVuSans-48"/>
      <use x="1344.4375" xlink:href="#DejaVuSans-32"/>
      <use x="1376.224609" xlink:href="#DejaVuSans-84"/>
      <use x="1420.808594" xlink:href="#DejaVuSans-97"/>
      <use x="1482.087891" xlink:href="#DejaVuSans-115"/>
      <use x="1534.1875" xlink:href="#DejaVuSans-107"/>
      <use x="1592.097656" xlink:href="#DejaVuSans-115"/>
     </g>
    </g>
   </g>
   <g id="LineCollection_1">
    <path clip-path="url(#p0ffa2a0dd6)" d="M 92.62867 215.69032 
L 481.553518 215.69032 
" style="fill:none;stroke:#808080;stroke-dasharray:5.55,2.4;stroke-dashoffset:0;stroke-width:1.5;"/>
   </g>
   <g id="line2d_15">
    <path clip-path="url(#p0ffa2a0dd6)" d="M 125.039074 143.28184 
L 125.039074 154.728204 
" style="fill:none;stroke:#414141;stroke-linecap:square;stroke-width:1.5;"/>
   </g>
   <g id="line2d_16">
    <path clip-path="url(#p0ffa2a0dd6)" d="M 125.039074 118.203157 
L 125.039074 74.218316 
" style="fill:none;stroke:#414141;stroke-linecap:square;stroke-width:1.5;"/>
   </g>
   <g id="line2d_17">
    <path clip-path="url(#p0ffa2a0dd6)" d="M 118.556993 154.728204 
L 131.521155 154.728204 
" style="fill:none;stroke:#414141;stroke-linecap:square;stroke-width:1.5;"/>
   </g>
   <g id="line2d_18">
    <path clip-path="url(#p0ffa2a0dd6)" d="M 118.556993 74.218316 
L 131.521155 74.218316 
" style="fill:none;stroke:#414141;stroke-linecap:square;stroke-width:1.5;"/>
   </g>
   <g id="line2d_19">
    <path clip-path="url(#p0ffa2a0dd6)" d="M 157.449478 167.24753 
L 157.449478 175.327328 
" style="fill:none;stroke:#414141;stroke-linecap:square;stroke-width:1.5;"/>
   </g>
   <g id="line2d_20">
    <path clip-path="url(#p0ffa2a0dd6)" d="M 157.449478 157.086589 
L 157.449478 135.141271 
" style="fill:none;stroke:#414141;stroke-linecap:square;stroke-width:1.5;"/>
   </g>
   <g id="line2d_21">
    <path clip-path="url(#p0ffa2a0dd6)" d="M 150.967397 175.327328 
L 163.931559 175.327328 
" style="fill:none;stroke:#414141;stroke-linecap:square;stroke-width:1.5;"/>
   </g>
   <g id="line2d_22">
    <path clip-path="url(#p0ffa2a0dd6)" d="M 150.967397 135.141271 
L 163.931559 135.141271 
" style="fill:none;stroke:#414141;stroke-linecap:square;stroke-width:1.5;"/>
   </g>
   <g id="line2d_23">
    <path clip-path="url(#p0ffa2a0dd6)" d="M 189.859882 180.993271 
L 189.859882 244.842881 
" style="fill:none;stroke:#414141;stroke-linecap:square;stroke-width:1.5;"/>
   </g>
   <g id="line2d_24">
    <path clip-path="url(#p0ffa2a0dd6)" d="M 189.859882 150.96879 
L 189.859882 115.375506 
" style="fill:none;stroke:#414141;stroke-linecap:square;stroke-width:1.5;"/>
   </g>
   <g id="line2d_25">
    <path clip-path="url(#p0ffa2a0dd6)" d="M 183.377801 244.842881 
L 196.341963 244.842881 
" style="fill:none;stroke:#414141;stroke-linecap:square;stroke-width:1.5;"/>
   </g>
   <g id="line2d_26">
    <path clip-path="url(#p0ffa2a0dd6)" d="M 183.377801 115.375506 
L 196.341963 115.375506 
" style="fill:none;stroke:#414141;stroke-linecap:square;stroke-width:1.5;"/>
   </g>
   <g id="line2d_27">
    <path clip-path="url(#p0ffa2a0dd6)" d="M 222.270286 216.019966 
L 222.270286 217.847096 
" style="fill:none;stroke:#414141;stroke-linecap:square;stroke-width:1.5;"/>
   </g>
   <g id="line2d_28">
    <path clip-path="url(#p0ffa2a0dd6)" d="M 222.270286 213.894842 
L 222.270286 211.008193 
" style="fill:none;stroke:#414141;stroke-linecap:square;stroke-width:1.5;"/>
   </g>
   <g id="line2d_29">
    <path clip-path="url(#p0ffa2a0dd6)" d="M 215.788205 217.847096 
L 228.752367 217.847096 
" style="fill:none;stroke:#414141;stroke-linecap:square;stroke-width:1.5;"/>
   </g>
   <g id="line2d_30">
    <path clip-path="url(#p0ffa2a0dd6)" d="M 215.788205 211.008193 
L 228.752367 211.008193 
" style="fill:none;stroke:#414141;stroke-linecap:square;stroke-width:1.5;"/>
   </g>
   <g id="line2d_31">
    <path clip-path="url(#p0ffa2a0dd6)" d="M 254.68069 239.406092 
L 254.68069 249.303029 
" style="fill:none;stroke:#414141;stroke-linecap:square;stroke-width:1.5;"/>
   </g>
   <g id="line2d_32">
    <path clip-path="url(#p0ffa2a0dd6)" d="M 254.68069 224.524685 
L 254.68069 217.356862 
" style="fill:none;stroke:#414141;stroke-linecap:square;stroke-width:1.5;"/>
   </g>
   <g id="line2d_33">
    <path clip-path="url(#p0ffa2a0dd6)" d="M 248.198609 249.303029 
L 261.162771 249.303029 
" style="fill:none;stroke:#414141;stroke-linecap:square;stroke-width:1.5;"/>
   </g>
   <g id="line2d_34">
    <path clip-path="url(#p0ffa2a0dd6)" d="M 248.198609 217.356862 
L 261.162771 217.356862 
" style="fill:none;stroke:#414141;stroke-linecap:square;stroke-width:1.5;"/>
   </g>
   <g id="line2d_35">
    <path clip-path="url(#p0ffa2a0dd6)" d="M 287.091094 279.440771 
L 287.091094 292.692349 
" style="fill:none;stroke:#414141;stroke-linecap:square;stroke-width:1.5;"/>
   </g>
   <g id="line2d_36">
    <path clip-path="url(#p0ffa2a0dd6)" d="M 287.091094 257.676265 
L 287.091094 251.703931 
" style="fill:none;stroke:#414141;stroke-linecap:square;stroke-width:1.5;"/>
   </g>
   <g id="line2d_37">
    <path clip-path="url(#p0ffa2a0dd6)" d="M 280.609013 292.692349 
L 293.573175 292.692349 
" style="fill:none;stroke:#414141;stroke-linecap:square;stroke-width:1.5;"/>
   </g>
   <g id="line2d_38">
    <path clip-path="url(#p0ffa2a0dd6)" d="M 280.609013 251.703931 
L 293.573175 251.703931 
" style="fill:none;stroke:#414141;stroke-linecap:square;stroke-width:1.5;"/>
   </g>
   <g id="line2d_39">
    <path clip-path="url(#p0ffa2a0dd6)" d="M 319.501498 276.475318 
L 319.501498 289.450578 
" style="fill:none;stroke:#414141;stroke-linecap:square;stroke-width:1.5;"/>
   </g>
   <g id="line2d_40">
    <path clip-path="url(#p0ffa2a0dd6)" d="M 319.501498 256.116138 
L 319.501498 249.993791 
" style="fill:none;stroke:#414141;stroke-linecap:square;stroke-width:1.5;"/>
   </g>
   <g id="line2d_41">
    <path clip-path="url(#p0ffa2a0dd6)" d="M 313.019417 289.450578 
L 325.983579 289.450578 
" style="fill:none;stroke:#414141;stroke-linecap:square;stroke-width:1.5;"/>
   </g>
   <g id="line2d_42">
    <path clip-path="url(#p0ffa2a0dd6)" d="M 313.019417 249.993791 
L 325.983579 249.993791 
" style="fill:none;stroke:#414141;stroke-linecap:square;stroke-width:1.5;"/>
   </g>
   <g id="line2d_43">
    <path clip-path="url(#p0ffa2a0dd6)" d="M 351.911902 279.924281 
L 351.911902 285.808653 
" style="fill:none;stroke:#414141;stroke-linecap:square;stroke-width:1.5;"/>
   </g>
   <g id="line2d_44">
    <path clip-path="url(#p0ffa2a0dd6)" d="M 351.911902 265.702206 
L 351.911902 253.309572 
" style="fill:none;stroke:#414141;stroke-linecap:square;stroke-width:1.5;"/>
   </g>
   <g id="line2d_45">
    <path clip-path="url(#p0ffa2a0dd6)" d="M 345.429821 285.808653 
L 358.393983 285.808653 
" style="fill:none;stroke:#414141;stroke-linecap:square;stroke-width:1.5;"/>
   </g>
   <g id="line2d_46">
    <path clip-path="url(#p0ffa2a0dd6)" d="M 345.429821 253.309572 
L 358.393983 253.309572 
" style="fill:none;stroke:#414141;stroke-linecap:square;stroke-width:1.5;"/>
   </g>
   <g id="line2d_47">
    <path clip-path="url(#p0ffa2a0dd6)" d="M 384.322306 274.641389 
L 384.322306 286.887996 
" style="fill:none;stroke:#414141;stroke-linecap:square;stroke-width:1.5;"/>
   </g>
   <g id="line2d_48">
    <path clip-path="url(#p0ffa2a0dd6)" d="M 384.322306 261.653554 
L 384.322306 257.694798 
" style="fill:none;stroke:#414141;stroke-linecap:square;stroke-width:1.5;"/>
   </g>
   <g id="line2d_49">
    <path clip-path="url(#p0ffa2a0dd6)" d="M 377.840225 286.887996 
L 390.804386 286.887996 
" style="fill:none;stroke:#414141;stroke-linecap:square;stroke-width:1.5;"/>
   </g>
   <g id="line2d_50">
    <path clip-path="url(#p0ffa2a0dd6)" d="M 377.840225 257.694798 
L 390.804386 257.694798 
" style="fill:none;stroke:#414141;stroke-linecap:square;stroke-width:1.5;"/>
   </g>
   <g id="line2d_51">
    <path clip-path="url(#p0ffa2a0dd6)" d="M 416.73271 267.355458 
L 416.73271 283.359672 
" style="fill:none;stroke:#414141;stroke-linecap:square;stroke-width:1.5;"/>
   </g>
   <g id="line2d_52">
    <path clip-path="url(#p0ffa2a0dd6)" d="M 416.73271 254.292365 
L 416.73271 251.824004 
" style="fill:none;stroke:#414141;stroke-linecap:square;stroke-width:1.5;"/>
   </g>
   <g id="line2d_53">
    <path clip-path="url(#p0ffa2a0dd6)" d="M 410.250629 283.359672 
L 423.21479 283.359672 
" style="fill:none;stroke:#414141;stroke-linecap:square;stroke-width:1.5;"/>
   </g>
   <g id="line2d_54">
    <path clip-path="url(#p0ffa2a0dd6)" d="M 410.250629 251.824004 
L 423.21479 251.824004 
" style="fill:none;stroke:#414141;stroke-linecap:square;stroke-width:1.5;"/>
   </g>
   <g id="line2d_55">
    <path clip-path="url(#p0ffa2a0dd6)" d="M 449.143114 321.668232 
L 449.143114 329.670057 
" style="fill:none;stroke:#414141;stroke-linecap:square;stroke-width:1.5;"/>
   </g>
   <g id="line2d_56">
    <path clip-path="url(#p0ffa2a0dd6)" d="M 449.143114 288.779331 
L 449.143114 223.127965 
" style="fill:none;stroke:#414141;stroke-linecap:square;stroke-width:1.5;"/>
   </g>
   <g id="line2d_57">
    <path clip-path="url(#p0ffa2a0dd6)" d="M 442.661033 329.670057 
L 455.625194 329.670057 
" style="fill:none;stroke:#414141;stroke-linecap:square;stroke-width:1.5;"/>
   </g>
   <g id="line2d_58">
    <path clip-path="url(#p0ffa2a0dd6)" d="M 442.661033 223.127965 
L 455.625194 223.127965 
" style="fill:none;stroke:#414141;stroke-linecap:square;stroke-width:1.5;"/>
   </g>
   <g id="line2d_59">
    <path clip-path="url(#p0ffa2a0dd6)" d="M 118.556993 135.329406 
L 131.521155 135.329406 
" style="fill:none;stroke:#414141;stroke-linecap:square;stroke-width:1.5;"/>
   </g>
   <g id="line2d_60">
    <path clip-path="url(#p0ffa2a0dd6)" d="M 150.967397 164.856363 
L 163.931559 164.856363 
" style="fill:none;stroke:#414141;stroke-linecap:square;stroke-width:1.5;"/>
   </g>
   <g id="line2d_61">
    <path clip-path="url(#p0ffa2a0dd6)" d="M 183.377801 167.301516 
L 196.341963 167.301516 
" style="fill:none;stroke:#414141;stroke-linecap:square;stroke-width:1.5;"/>
   </g>
   <g id="line2d_62">
    <path clip-path="url(#p0ffa2a0dd6)" d="M 215.788205 214.998375 
L 228.752367 214.998375 
" style="fill:none;stroke:#414141;stroke-linecap:square;stroke-width:1.5;"/>
   </g>
   <g id="line2d_63">
    <path clip-path="url(#p0ffa2a0dd6)" d="M 248.198609 235.314221 
L 261.162771 235.314221 
" style="fill:none;stroke:#414141;stroke-linecap:square;stroke-width:1.5;"/>
   </g>
   <g id="line2d_64">
    <path clip-path="url(#p0ffa2a0dd6)" d="M 280.609013 271.327314 
L 293.573175 271.327314 
" style="fill:none;stroke:#414141;stroke-linecap:square;stroke-width:1.5;"/>
   </g>
   <g id="line2d_65">
    <path clip-path="url(#p0ffa2a0dd6)" d="M 313.019417 268.658784 
L 325.983579 268.658784 
" style="fill:none;stroke:#414141;stroke-linecap:square;stroke-width:1.5;"/>
   </g>
   <g id="line2d_66">
    <path clip-path="url(#p0ffa2a0dd6)" d="M 345.429821 272.731021 
L 358.393983 272.731021 
" style="fill:none;stroke:#414141;stroke-linecap:square;stroke-width:1.5;"/>
   </g>
   <g id="line2d_67">
    <path clip-path="url(#p0ffa2a0dd6)" d="M 377.840225 265.472135 
L 390.804386 265.472135 
" style="fill:none;stroke:#414141;stroke-linecap:square;stroke-width:1.5;"/>
   </g>
   <g id="line2d_68">
    <path clip-path="url(#p0ffa2a0dd6)" d="M 410.250629 259.717421 
L 423.21479 259.717421 
" style="fill:none;stroke:#414141;stroke-linecap:square;stroke-width:1.5;"/>
   </g>
   <g id="line2d_69">
    <path clip-path="url(#p0ffa2a0dd6)" d="M 442.661033 306.46435 
L 455.625194 306.46435 
" style="fill:none;stroke:#414141;stroke-linecap:square;stroke-width:1.5;"/>
   </g>
   <g id="patch_14">
    <path d="M 73.182428 342.442644 
L 73.182428 61.445729 
" style="fill:none;stroke:#000000;stroke-linecap:square;stroke-linejoin:miter;stroke-width:0.8;"/>
   </g>
   <g id="patch_15">
    <path d="M 73.182428 342.442644 
L 500.99976 342.442644 
" style="fill:none;stroke:#000000;stroke-linecap:square;stroke-linejoin:miter;stroke-width:0.8;"/>
   </g>
  </g>
 </g>
 <defs>
  <clipPath id="p0ffa2a0dd6">
   <rect height="280.996914" width="427.817333" x="73.182428" y="61.445729"/>
  </clipPath>
 </defs>
</svg>
